<svg width="64" height="64" viewBox="0 0 64 64" fill="none" xmlns="http://www.w3.org/2000/svg">
  <rect x="2" y="2" width="60" height="60" rx="14" fill="#EFF3FF"/>
  <path d="M32 18C33.8 16 36.2 15 38.6 15C38.9 17.4 37.9 19.8 36.4 21.4C34.8 23.1 32.4 24.1 30.2 23.9C29.9 21.7 30.9 19.3 32 18Z" fill="#0F172A"/>
  <path d="M41.9 35.2C41.9 40.7 46.8 42.5 46.9 42.5C46.9 42.6 46.2 45.1 44.5 47.7C43.1 49.9 41.7 52 39.4 52C37.1 52 36.5 50.7 33.8 50.7C31.1 50.7 30.3 52 28.2 52C26 52.1 24.3 49.8 22.9 47.6C19.8 42.8 17.5 34 20.8 28.4C22.4 25.7 25.2 24 28.2 24C30.4 24 32.5 25.5 33.8 25.5C35.1 25.5 37.6 23.7 40.2 24.1C41.3 24.2 44.4 24.6 46.3 27.4C46.1 27.6 41.9 30.1 41.9 35.2Z" fill="#0F172A"/>
</svg>
